<svg height="32" viewBox="0 0 32 32" width="32" xmlns="http://www.w3.org/2000/svg"><g fill="#573b95" fill-rule="evenodd" transform="translate(4 7)"><path d="m2.85714286 1.14285714c-.93942857 0-1.70285715.76914286-1.70285715 1.71428572l-.01142857 11.42971424c0 .944.76914286 1.7131429 1.71428572 1.7131429h18.28571424c.9451429 0 1.7142858-.7691429 1.7142858-1.7142857v-11.42857144c0-.94514286-.7691429-1.71428572-1.7142858-1.71428572zm18.28571424 15.99999996h-18.28571424c-1.57485715 0-2.85714286-1.2811428-2.85714286-2.8571428l.01142857-11.42857144c0-1.57485715 1.27657143-2.85714286 2.84571429-2.85714286h18.28571424c1.576 0 2.8571429 1.28228571 2.8571429 2.85714286v11.42857144c0 1.576-1.2811429 2.8571428-2.8571429 2.8571428z"/><path d="m11.4285714 4h1.1428572c.3154285 0 .5714285.256.5714285.57142857v1.14285714c0 .31542858-.256.57142858-.5714285.57142858h-1.1428572c-.3154285 0-.5714285-.256-.5714285-.57142858v-1.14285714c0-.31542857.256-.57142857.5714285-.57142857"/><path d="m11.4285714 7.42857143h1.1428572c.3154285 0 .5714285.256.5714285.57142857v1.14285714c0 .31542857-.256.57142857-.5714285.57142857h-1.1428572c-.3154285 0-.5714285-.256-.5714285-.57142857v-1.14285714c0-.31542857.256-.57142857.5714285-.57142857"/><path d="m8 4h1.14285714c.31542857 0 .57142857.256.57142857.57142857v1.14285714c0 .31542858-.256.57142858-.57142857.57142858h-1.14285714c-.31542857 0-.57142857-.256-.57142857-.57142858v-1.14285714c0-.31542857.256-.57142857.57142857-.57142857"/><path d="m8 7.42857143h1.14285714c.31542857 0 .57142857.256.57142857.57142857v1.14285714c0 .31542857-.256.57142857-.57142857.57142857h-1.14285714c-.31542857 0-.57142857-.256-.57142857-.57142857v-1.14285714c0-.31542857.256-.57142857.57142857-.57142857"/><path d="m5.71428571 9.71428571h-1.14285714c-.31542857 0-.57142857-.256-.57142857-.57142857v-1.14285714c0-.31542857.256-.57142857.57142857-.57142857h1.14285714c.31542858 0 .57142858.256.57142858.57142857v1.14285714c0 .31542857-.256.57142857-.57142858.57142857"/><path d="m5.71428571 6.28571429h-1.14285714c-.31542857 0-.57142857-.256-.57142857-.57142858v-1.14285714c0-.31542857.256-.57142857.57142857-.57142857h1.14285714c.31542858 0 .57142858.256.57142858.57142857v1.14285714c0 .31542858-.256.57142858-.57142858.57142858"/><path d="m16 9.71428571h-1.1428571c-.3154286 0-.5714286-.256-.5714286-.57142857v-1.14285714c0-.31542857.256-.57142857.5714286-.57142857h1.1428571c.3154286 0 .5714286.256.5714286.57142857v1.14285714c0 .31542857-.256.57142857-.5714286.57142857"/><path d="m16 6.28571429h-1.1428571c-.3154286 0-.5714286-.256-.5714286-.57142858v-1.14285714c0-.31542857.256-.57142857.5714286-.57142857h1.1428571c.3154286 0 .5714286.256.5714286.57142857v1.14285714c0 .31542858-.256.57142858-.5714286.57142858"/><path d="m19.4285714 9.71428571h-1.1428571c-.3154286 0-.5714286-.256-.5714286-.57142857v-1.14285714c0-.31542857.256-.57142857.5714286-.57142857h1.1428571c.3154286 0 .5714286.256.5714286.57142857v1.14285714c0 .31542857-.256.57142857-.5714286.57142857"/><path d="m19.4285714 6.28571429h-1.1428571c-.3154286 0-.5714286-.256-.5714286-.57142858v-1.14285714c0-.31542857.256-.57142857.5714286-.57142857h1.1428571c.3154286 0 .5714286.256.5714286.57142857v1.14285714c0 .31542858-.256.57142858-.5714286.57142858"/><path d="m15.4285714 14.2857143h-6.85714283c-.63085714 0-1.14285714-.5108572-1.14285714-1.1428572s.512-1.1428571 1.14285714-1.1428571h6.85714283c.632 0 1.1428572.5108571 1.1428572 1.1428571s-.5108572 1.1428572-1.1428572 1.1428572"/></g></svg>