<svg height="210" viewBox="0 0 162 210" width="162" xmlns="http://www.w3.org/2000/svg" xmlns:xlink="http://www.w3.org/1999/xlink"><mask id="a" fill="#fff"><path d="m.12233078.2532465h20.58104422v22.7210648h-20.58104422z" fill="#fff" fill-rule="evenodd"/></mask><g fill="none" fill-rule="evenodd"><circle cx="80" cy="130" fill="#f7f1ff" r="80"/><g transform="translate(32)"><path d="m98 147.16564c0 9.297195-7.5475547 16.83436-16.8575654 16.83436h-62.2848692c-9.31033709 0-16.8575654-7.537165-16.8575654-16.83436v-128.3309536c0-9.29752116 7.54722831-16.8346864 16.8575654-16.8346864h62.2848692c9.3100107 0 16.8575654 7.53716524 16.8575654 16.8346864z" fill="#573b95"/><path d="m28.0801521 147.16564v-128.3309536c0-9.29752116 7.5754401-16.8346864 16.9198479-16.8346864h-26.0801521c-9.34440775 0-16.9198479 7.53716524-16.9198479 16.8346864v128.3309536c0 9.297195 7.57544015 16.83436 16.9198479 16.83436h26.0801521c-9.3444078 0-16.9198479-7.537165-16.9198479-16.83436" fill="#573b95"/><path d="m98 38.0254753c-.3457467-.0124111-.6918172-.0254753-1.0395064-.0254753-7.5763212 0-14.6990927 2.976688-20.0565486 8.3816922l-11.0111274 11.1088532-10.0774817 3.4434081c-3.305313 1.1271176-5.7533813 3.8467666-6.5478218 7.2748241-.7944406 3.4290374.2049229 6.9635686 2.6737101 9.4545933l7.4526553 7.518799c-2.3875302 5.3801822-1.3991737 11.9276546 2.9718681 16.3378171 2.7391041 2.762761 6.3804519 4.284418 10.2539161 4.284418 2.0838687 0 4.0994298-.444184 5.9447074-1.282255l7.4497417 7.516186c1.89319 1.909666 4.4053574 2.961664 7.073564 2.961664 1.7646681 0 3.4448419-.470313 4.9123232-1.301199z" fill="#d3b3ff"/><path d="m88 147.894223c0 3.92414-3.1550426 7.105777-7.0471052 7.105777h-61.9057896c-3.8920626 0-7.0471052-3.181637-7.0471052-7.106104v-128.788119c0-3.9247937 3.1550426-7.105777 7.0471052-7.105777h4.0065732c.8671015 0 1.643373.5419938 1.9483021 1.3607085l.9537143 2.5614684c1.0513565 2.8241244 3.7292175 4.6944445 6.7210906 4.6944445h34.6464292c2.9912243 0 5.6694097-1.8703201 6.721415-4.6944445l.9533899-2.5614684c.3046047-.8187147 1.0812006-1.3607085 1.9483021-1.3607085h4.0065732c3.8920626 0 7.0471052 3.1809833 7.0471052 7.1054499z" fill="#bab4ec"/><path d="m28.4203279 19.1060878c0-.0454659.0029743-.0896234.0033048-.1350893-.9722585-.7899287-1.7442489-1.8297562-2.2065838-3.0488305l-.9712671-2.5611355c-.3106468-.8187129-1.1014742-1.3610325-1.9848348-1.3610325h-4.0817009c-3.965043 0-7.1792461 3.180976-7.1792461 7.1057607v128.7881513c0 3.924458 3.2142031 7.106088 7.1792461 7.106088h10.8207539c-1.0135678-2.160774-1.5796721-4.566868-1.5796721-7.105761z" fill="#d1c8fe"/><path d="m88 114v-74c-4.2223064 1.3614033-8.0932624 3.7259972-11.317721 6.9866101l-10.9236562 11.0461382-9.9974272 3.4236436c-3.279056 1.1210793-5.707677 3.8253745-6.4958066 7.2337542-.7881296 3.4096788.203295 6.9245806 2.6524704 9.4015422l7.3934522 7.4763516c-2.3688851 5.3498084-1.3880588 11.8603171 2.9482599 16.2455821 2.717345 2.747163 6.3297662 4.260231 10.1721389 4.260231 2.0676359 0 4.0668644-.442002 5.8978045-1.275017l7.3902405 7.473754c.6856792.693042 1.4538968 1.271119 2.2802446 1.72741" fill="#e5d4fc"/><g fill="#7d54b4"><path d="m116.286782 55.6767427 3.115072-3.177429c2.130861-2.1732951 2.130861-5.6963721 0-7.8693424-2.130543-2.1732951-5.584833-2.1732951-7.715376 0l-3.115708 3.1774289-7.57077 7.5116746 7.274551 7.6809252z"/><path d="m78.8604837 95.8205431-.8830066.8558818c-3.1974793 3.0981001-8.3818059 3.0981001-11.5796148 0-3.1971497-3.0981002-3.1971497-8.1216149 0-11.2193958l.8833362-.8558817 6.5742627-6.6011474 11.1445388 9.3818049z"/><path d="m79.5964616 63-10.6624034 1.105766-11.5113807 3.896555c-2.5032202.8455857-3.2459944 4.0253506-1.3757836 5.8945061l34.0788935 34.0593399c1.8666491 1.86592 5.0482092 1.123565 5.8975103-1.378243l3.895517-11.5016492 3.0811853-10.4188592z"/></g><path d="m90.8451547 87.1275761-4.1408563 12.1534144c-.448139 1.3127355-1.5080797 2.1655445-2.7042984 2.4518655l6.1898601 6.222621c1.8573124 1.867239 5.0232811 1.12423 5.8683341-1.379458l3.87571-11.5121075 3.0660958-10.4277157-4.9804324-4.6361958z" fill="#986dd1"/><path d="m112.515004 51.4839306c4.32464 4.3240927 6.484996 9.9898744 6.484996 15.6553289 0 5.6687262-2.160356 11.3341807-6.484996 15.6550018l-12.206357 12.2057387-.4142077-.4145135-30.8944393-30.8958171 12.2063577-12.2057388c8.6453521-8.6452408 22.6629673-8.6452408 31.3086463 0" fill="#693ea2"/><path d="m112.588418 51.6226268c-.977813-.9858494-2.029698-1.8624498-3.131073-2.6226268 1.118194 2.7798148 1.681011 5.7380152 1.681011 8.6890411 0 5.9656443-2.282319 11.9280275-6.849544 16.4750663l-12.288812 12.2433819 8.111677 8.1793214.409498.4131893 12.067566-12.1667447c4.275467-4.3070171 6.411259-9.954372 6.411259-15.6049881-.000323-5.647681-2.136116-11.2953621-6.411582-15.6056404" fill="#7d54b4"/><g fill="#000"><path d="m2.43758613 34.0496052c1.34623226 0 2.43735806-1.0970862 2.43735806-2.4506724v-12.228138c0-7.978362 6.45552901-14.46882756 14.39054521-14.46882756h62.1752741c7.9350162 0 14.3905452 6.49046556 14.3905452 14.46882756v16.0314138c0 1.3539138 1.0911258 2.4506724 2.4373581 2.4506724 1.3462322 0 2.4376842-1.0967586 2.4376842-2.4506724v-16.0314138c0-10.68094825-8.6426681-19.37049997-19.2655875-19.37049997h-62.1752741c-10.6229194 0-19.26526134 8.68955172-19.26526134 19.37049997v12.228138c0 1.3535862 1.09112581 2.4506724 2.43735807 2.4506724"/><path d="m98.2687319 76.1881469c-1.3462322 0-2.437358 1.0935511-2.437358 2.4427755v30.0610616c0 7.952326-6.4555291 14.422204-14.3905452 14.422204h-62.1752742c-7.9350161 0-14.39054515-6.469878-14.39054515-14.422204v-105.9676738c0-1.34955102-1.0911258-2.44310204-2.43735806-2.44310204s-2.43768387 1.09355102-2.43768387 2.44310204v105.9676738c0 10.64653 8.64266774 19.308081 19.26558708 19.308081h62.1752742c10.6229194 0 19.2652613-8.661877 19.2652613-19.308081v-30.0610616c0-1.3488979-1.0911258-2.4427755-2.4373581-2.4427755" transform="translate(0 39)"/><path d="m88.5688236 39.0175341c1.3428179 0 2.4311764-1.0888118 2.4311764-2.4321891v-17.0903467c0-5.235335-4.2575648-9.4949983-9.491045-9.4949983h-4.0135047c-1.8712357 0-3.5708818 1.1775684-4.2283166 2.9299409l-.9551167 2.5459795c-.6935076 1.8473063-2.4844731 3.0889224-4.4571026 3.0889224h-34.7095038c-1.9726295 0-3.763595-1.2412909-4.4571027-3.0889224l-.9554416-2.5459795c-.6577598-1.7523725-2.356756-2.9299409-4.2279916-2.9299409h-4.0138297c-5.2334802 0-9.491045 4.2596633-9.491045 9.4949983v128.0100037c0 5.23566 4.2575648 9.494998 9.491045 9.494998h43.7270528c1.3428179 0 2.4315014-1.088812 2.4315014-2.432189 0-1.343702-1.0886835-2.432514-2.4315014-2.432514h-43.7270528c-2.552069 0-4.6283672-2.077163-4.6283672-4.630295v-128.0100037c0-2.553132 2.0762982-4.630295 4.6283672-4.630295h3.7739944l.8709467 2.3206745c1.4016394 3.7349269 5.0219181 6.2441683 9.0097494 6.2441683h34.7091789c3.9871814 0 7.6081101-2.5092414 9.0094244-6.2441683l.8706218-2.3206745h3.7739944c2.552394 0 4.6286921 2.077163 4.6286921 4.630295v17.0900216c0 1.3433773 1.0883585 2.4325142 2.4311765 2.4325142"/><path d="m81.4380709 157c5.2725666 0 9.5619291-4.279302 9.5619291-9.538774v-30.017497c0-1.349897-1.0968143-2.443729-2.4493337-2.443729-1.3528468 0-2.4496612 1.093832-2.4496612 2.443729v30.017497c0 2.564903-2.091805 4.651643-4.6629342 4.651643h-7.9884098c-1.3528468 0-2.4496611 1.093831-2.4496611 2.443729 0 1.34957 1.0968143 2.443402 2.4496611 2.443402z"/><path d="m63.5350382 14c1.3614787 0 2.4649618-1.1190938 2.4649618-2.4998329 0-1.3810733-1.1034831-2.5001671-2.4649618-2.5001671h-26.0697469c-1.3614787 0-2.4652913 1.1190938-2.4652913 2.5001671 0 1.3807391 1.1038126 2.4998329 2.4652913 2.4998329z"/><path d="m68.7076249 95.2919968c-1.9341825-1.9341749-2.1710677-4.9312338-.7132624-7.1270567l7.8403469 7.8406422c-2.1955056 1.4581255-5.192902 1.2209153-7.1270845-.7135855zm45.0544611-49.5000209c1.225482-1.2254771 3.220271-1.2254771 4.445753-.0003258 1.225807 1.2258029 1.225807 3.2202579 0 4.4460608l-1.608995 1.6089886c-.63832-.8250221-1.32747-1.6187637-2.077226-2.368843-.749757-.7497535-1.543175-1.4402044-2.370156-2.0752629zm7.931582 21.0005914c0-3.7676659-.849789-7.4036933-2.450638-10.6953098l2.412189-2.4121794c3.126429-3.1267425 3.126429-8.2140527-.000326-11.3407952-3.126428-3.125439-8.213433-3.1260907-11.340513.0003259l-2.433369 2.4333589c-6.978175-3.3551549-15.3675617-3.3193127-22.3952653.5148242-1.1818194.6451595-1.6174666 2.1257678-.9726305 3.3075826.6448361 1.1821406 2.1254502 1.6174603 3.3075955.9726267 7.5803271-4.1368405 17.1427353-2.7578937 23.2525493 3.3525482 3.704468 3.7038017 5.744222 8.6285188 5.744222 13.8666921s-2.039754 10.163542-5.744222 13.8673437l-10.431748 10.4317068-11.4428266-11.4424566c-.9521027-.951773-2.4956038-.951773-3.4473806 0-.9521026.9524248-.9521026 2.4955941 0 3.447693l12.0954833 12.0947845-3.436302 10.1488791c-.1782342.526555-.5946569.696316-.8269803.750405-.2323235.054089-.6813302.086347-1.0742924-.306613l-34.2945937-34.2938088c-.3929623-.3929607-.3610301-.8419656-.3066149-1.0742882.0544152-.2326484.2238517-.6487436.7507339-.8273029l11.5832638-3.9221132c.3548391-.1199085.6767684-.3202989.9420016-.5852053l9.2127823-9.2130723c.9517768-.9524247.9517768-2.495594 0-3.4476929-.9521026-.9517731-2.4956037-.9517731-3.4473805 0l-8.8100449 8.8103364-11.0439996 3.7396439c-1.9863168.6725298-3.4578074 2.2939002-3.9348362 4.3362534-.4770289 2.0426791.1238189 4.147919 1.6067139 5.6308082l9.7425972 9.7428851c-3.3375727 4.1322788-3.0879797 10.2202379.7504081 14.0592624 2.0534397 2.0527802 4.7500863 3.0794962 7.4470588 3.0794962 2.3453917 0 4.6901318-.777124 6.6119325-2.3294169l9.742923 9.7425589c1.1479321 1.148254 2.6682986 1.767672 4.2443836 1.767672.4600852 0 .9247321-.053112 1.3864465-.160638 2.042687-.477027 3.663412-1.948186 4.3362703-3.934495l3.7399839-11.0439568 11.752701-11.7529803c4.624964-4.6252719 7.171724-10.7744885 7.171724-17.3153626z"/><path d="m77.6985597 72.6989111c-.9314661.9321472-.9314661 2.4424617.0003189 3.373971l1.2286678 1.228725c.4655736.4659142 1.0762404.6983929 1.6869071.6983929s1.2213335-.2327976 1.687226-.6987118c.9311472-.9321472.9311472-2.4427805-.0003189-3.373971l-1.2289868-1.228725c-.9317849-.9318283-2.442348-.9311905-3.3738141.0003189"/><path d="m68.7651386 34.0769543c-5.1992219-.4546806-10.2338265 1.116614-14.1741513 4.4183094-3.9396691 3.3016954-6.279073 7.9106774-6.5866649 12.9781661-.0796854 1.3155765.9519609 2.4449445 2.304644 2.5224251.0491885.0025508.0980491.0041451.1469096.0041451 1.2887381 0 2.3699008-.977914 2.4466348-2.2453442.2285625-3.7678547 1.9658995-7.1932641 4.891958-9.6449045 2.9257305-2.452278 6.6663502-3.6170384 10.5335482-3.2806513 1.3480922.1163804 2.5417325-.8510116 2.6620804-2.1633996.1206757-1.3123881-.8755549-2.4714092-2.2249588-2.5887461"/><path d="m68.9231078 44.1272365c-2.7566801-.4565553-5.5514862.3280558-7.6646647 2.152617-2.11351 1.8242292-3.3007225 4.4755706-3.2572919 7.27467.0208865 1.3587087 1.1272053 2.4454765 2.4791887 2.4454765.0132612 0 .0265225 0 .0394522-.000332 1.369886-.0209186 2.4629436-1.1505195 2.4417256-2.5221778-.0205549-1.3221843.5394009-2.5739761 1.5359831-3.4339604.9965821-.8603163 2.3147493-1.229213 3.617666-1.014715 1.3513203.2244592 2.6280461-.6916399 2.851498-2.0457.2224573-1.3537282-.6919051-2.6324152-2.043557-2.8558783"/><path d="m20.6249859 2.46122676c-.12075-1.33302817-1.3134843-2.31878873-2.6640468-2.19795775-1.3502344.11921127-2.3470782 1.29674648-2.2263282 2.62977465.3458438 3.81929578-.8527968 7.51516904-3.3760781 10.40539434-2.52295311 2.8905493-6.04832811 4.6068028-9.92578124 4.8325916-1.35351562.0787183-2.386125 1.2261267-2.3060625 2.5623943.07710938 1.2876761 1.1589375 2.2808874 2.44814063 2.2808874.04889062 0 .09778125-.0012958.147-.0038874 5.21521875-.3038591 9.95826561-2.6151971 13.35600001-6.5073802 3.3977344-3.8925071 5.0127656-8.86504229 4.5471562-14.00181694" mask="url(#a)" transform="translate(109 93)"/><path d="m110.593525 106c2.744309-.000332 5.334551-1.1822 7.126569-3.25851 1.824559-2.114102 2.608837-4.9074896 2.152946-7.6647411-.224127-1.3516068-1.503808-2.2675965-2.855542-2.042826-1.353726.223113-2.269823 1.4997963-2.046361 2.8514032.215494 1.3022104-.154398 2.6209968-1.014713 3.6168827-.860315.9972122-2.112769 1.5498562-3.433623 1.5362632-1.360035-.012929-2.501256 1.071804-2.522506 2.441645-.020919 1.36984 1.073816 2.49734 2.445805 2.518225.049142.000995.098283.001658.147425.001658"/></g></g></g></svg>