<svg viewBox="0 0 813.64 230.5" xmlns="http://www.w3.org/2000/svg"><g fill="#ec111a"><path d="m231.79 144.7a15.2 15.2 0 1 1 15.21-15.19 15.22 15.22 0 0 1 -15.2 15.19m0-49.67a34.48 34.48 0 1 0 34.48 34.48 34.51 34.51 0 0 0 -34.49-34.51"/><path d="m310.19 96.67h-9.41v-20.35h-20.61v20.35h-9.41v18.65h9.41v47h20.61v-47h9.41"/><path d="m319.64 162.34h20.61v-65.67h-20.61z"/><path d="m329.94 64.84a11.48 11.48 0 1 0 11.49 11.48 11.49 11.49 0 0 0 -11.49-11.48"/><path d="m625.47 114.36a12.29 12.29 0 0 1 12.28 12.28v35.7h20.61v-38.53c0-17.48-10.09-28.78-26-28.78-6.54 0-13.45 2.87-19.14 12v-10.36h-20.63v65.67h20.61v-35.7a12.29 12.29 0 0 1 12.27-12.28"/><path d="m733.46 162.34-25.32-32.81 23.55-32.86h-24.08l-18.93 26.57v-56.76h-20.61v95.86h20.61v-27.06l20.77 27.06"/><path d="m126.38 144.67a30 30 0 0 0 2.11-12.1c0-6.63-2.08-12.55-5.85-16.69-4.4-4.81-11.92-8.82-22.35-11.89a36.59 36.59 0 0 1 -5.86-2.2 14.46 14.46 0 0 1 -4.37-3.25 7.38 7.38 0 0 1 -1.88-5.32c0-3 1.64-5.12 4.29-6.79 3.33-2.1 9.74-2.31 16.3.12a39.83 39.83 0 0 1 6.64 3.15l8.76-17.43a49.51 49.51 0 0 0 -12.56-5.66 55 55 0 0 0 -14-1.77 37.38 37.38 0 0 0 -13.07 2.16 29.54 29.54 0 0 0 -10 6.51 30.69 30.69 0 0 0 -6.65 10 31.9 31.9 0 0 0 -2.21 12.14 25.61 25.61 0 0 0 7.75 17.35c6 5.63 12.81 7.63 15.55 8.69s5.75 2 7.68 2.72a27.38 27.38 0 0 1 5.64 2.87 9 9 0 0 1 3 3.34 7.41 7.41 0 0 1 .65 4.18 8.59 8.59 0 0 1 -2.95 5.7c-1.77 1.66-5 2.61-9.48 2.61a28.64 28.64 0 0 1 -11.49-2.76 82.94 82.94 0 0 1 -9.34-4.95l-10.3 17.94c7.22 6.38 18.87 10.66 29.24 10.66a49.53 49.53 0 0 0 15.53-2.48 35.79 35.79 0 0 0 11.77-6.58 30.62 30.62 0 0 0 7.45-10.25"/><path d="m748 160a9.17 9.17 0 1 1 9.16-9.17 9.17 9.17 0 0 1 -9.16 9.17m0-20.65a11.48 11.48 0 1 0 11.48 11.48 11.49 11.49 0 0 0 -11.48-11.45"/><path d="m746.12 150.68h2.63a1.93 1.93 0 0 0 0-3.84h-2.63zm1.83 2.1h-1.83v4.35h-2.26v-12.53h4.8a4.16 4.16 0 0 1 4.17 4.15 4.06 4.06 0 0 1 -2.42 3.65l2.64 4.73h-2.71"/><path d="m182.8 139a15.2 15.2 0 1 1 0-19l13.66-13.66a34.4 34.4 0 0 0 -25.46-11.34c-19 0-35.56 13.53-35.56 34.48s16.56 34.52 35.56 34.52a34.4 34.4 0 0 0 25.49-11.29"/><path d="m384.8 145a15.51 15.51 0 1 1 15.52-15.5 15.51 15.51 0 0 1 -15.52 15.5m36.06 17.33v-65.66h-20.09v6.9l-1.86-1.66a25.13 25.13 0 0 0 -17.31-6.91c-17.72 0-32.7 15.78-32.7 34.48s15 34.47 32.7 34.47a25.13 25.13 0 0 0 17.31-6.88l1.86-1.66v6.9"/><path d="m546.68 145a15.51 15.51 0 1 1 15.51-15.5 15.52 15.52 0 0 1 -15.51 15.5m36.05 17.33v-65.66h-20.09v6.9l-1.87-1.66a25.08 25.08 0 0 0 -17.3-6.91c-17.72 0-32.7 15.78-32.7 34.48s15 34.47 32.7 34.47a25.08 25.08 0 0 0 17.3-6.88l1.87-1.66v6.9"/><path d="m452.05 129.51a15.51 15.51 0 1 1 15.52 15.49 15.53 15.53 0 0 1 -15.52-15.5m-.45 32.83v-6.9l1.86 1.66a25.13 25.13 0 0 0 17.31 6.91c17.72 0 32.7-15.79 32.7-34.47s-14.98-34.53-32.7-34.53a25.13 25.13 0 0 0 -17.31 6.88l-1.86 1.66v-37.06h-20.08v95.86"/></g></svg>