<svg viewBox="0 0 813.64 230.5" xmlns="http://www.w3.org/2000/svg" xmlns:xlink="http://www.w3.org/1999/xlink"><clipPath id="a"><path d="m0-.84h813.64v230.5h-813.64z"/></clipPath><g clip-path="url(#a)"><path d="m0 229.66h813.65v-230.48h-813.65z" fill="#ec111a"/></g><g fill="#fff"><path d="m231.79 144.71a15.2 15.2 0 1 1 15.21-15.19 15.21 15.21 0 0 1 -15.2 15.19m0-49.67a34.48 34.48 0 1 0 34.48 34.48 34.52 34.52 0 0 0 -34.49-34.52"/><path d="m310.19 96.68h-9.41v-20.35h-20.61v20.35h-9.41v18.65h9.41v47h20.61v-47h9.41"/><path d="m319.64 162.35h20.61v-65.67h-20.61z"/><path d="m329.94 64.85a11.48 11.48 0 1 0 11.49 11.48 11.5 11.5 0 0 0 -11.49-11.48"/><path d="m625.47 114.37a12.29 12.29 0 0 1 12.28 12.28v35.7h20.61v-38.52c0-17.49-10.09-28.79-26-28.79-6.54 0-13.45 2.87-19.14 12v-10.36h-20.63v65.67h20.61v-35.7a12.29 12.29 0 0 1 12.27-12.28"/><path d="m733.46 162.35-25.32-32.81 23.55-32.86h-24.08l-18.93 26.57v-56.76h-20.61v95.86h20.61v-27.06l20.77 27.06"/><path d="m126.38 144.68a30 30 0 0 0 2.11-12.1c0-6.63-2.08-12.55-5.85-16.68-4.4-4.82-11.92-8.82-22.35-11.9a36.59 36.59 0 0 1 -5.86-2.2 14.46 14.46 0 0 1 -4.37-3.25 7.36 7.36 0 0 1 -1.88-5.32c0-3 1.64-5.11 4.29-6.79 3.33-2.09 9.74-2.3 16.3.12a40.64 40.64 0 0 1 6.64 3.15l8.76-17.43a49.86 49.86 0 0 0 -12.56-5.66 55.49 55.49 0 0 0 -14-1.77 37.38 37.38 0 0 0 -13.07 2.15 29.54 29.54 0 0 0 -10 6.51 30.69 30.69 0 0 0 -6.65 10 31.9 31.9 0 0 0 -2.21 12.14 25.63 25.63 0 0 0 7.75 17.35c6 5.63 12.81 7.63 15.55 8.69s5.75 2 7.68 2.71a27.88 27.88 0 0 1 5.64 2.88 9 9 0 0 1 3 3.34 7.44 7.44 0 0 1 .65 4.19 8.59 8.59 0 0 1 -2.93 5.66c-1.77 1.66-5 2.61-9.48 2.61a28.64 28.64 0 0 1 -11.49-2.76 82.94 82.94 0 0 1 -9.34-5l-10.3 17.94c7.2 6.48 18.85 10.74 29.22 10.74a49.53 49.53 0 0 0 15.53-2.48 36 36 0 0 0 11.77-6.57 30.76 30.76 0 0 0 7.45-10.26"/><path d="m748 160a9.17 9.17 0 1 1 9.16-9.17 9.16 9.16 0 0 1 -9.16 9.17m0-20.64a11.48 11.48 0 1 0 11.48 11.47 11.47 11.47 0 0 0 -11.48-11.43"/><path d="m746.12 150.69h2.63a1.93 1.93 0 0 0 0-3.84h-2.63zm1.83 2.1h-1.83v4.35h-2.26v-12.53h4.8a4.16 4.16 0 0 1 4.17 4.15 4.09 4.09 0 0 1 -2.42 3.66l2.64 4.72h-2.71"/><path d="m182.8 139a15.2 15.2 0 1 1 0-19l13.66-13.66a34.4 34.4 0 0 0 -25.46-11.34c-19 0-35.56 13.53-35.56 34.48s16.56 34.52 35.56 34.52a34.4 34.4 0 0 0 25.49-11.29"/><path d="m384.8 145a15.52 15.52 0 1 1 15.52-15.52 15.52 15.52 0 0 1 -15.52 15.52m36.06 17.32v-65.64h-20.09v6.9l-1.86-1.66a25.13 25.13 0 0 0 -17.31-6.92c-17.72 0-32.7 15.79-32.7 34.47s15 34.48 32.7 34.48a25.08 25.08 0 0 0 17.31-6.88l1.86-1.66v6.9"/><path d="m546.68 145a15.52 15.52 0 1 1 15.51-15.52 15.53 15.53 0 0 1 -15.51 15.52m36.05 17.32v-65.64h-20.09v6.9l-1.87-1.66a25.08 25.08 0 0 0 -17.3-6.92c-17.72 0-32.7 15.79-32.7 34.47s15 34.48 32.7 34.48a25 25 0 0 0 17.3-6.88l1.87-1.66v6.9"/><path d="m452.05 129.52a15.51 15.51 0 1 1 15.52 15.48 15.53 15.53 0 0 1 -15.52-15.51m-.45 32.83v-6.9l1.86 1.66a25.08 25.08 0 0 0 17.31 6.92c17.72 0 32.7-15.78 32.7-34.47s-14.98-34.53-32.7-34.53a25.13 25.13 0 0 0 -17.31 6.88l-1.86 1.66v-37.05h-20.08v95.86"/></g></svg>