<svg width="145" height="50" viewBox="0 0 145 50" fill="none" xmlns="http://www.w3.org/2000/svg">
<path d="M0.4375 49V3.5H16.7812C22.6354 3.5 27.0833 4.57292 30.125 6.71875C33.1875 8.86458 34.7188 11.9792 34.7188 16.0625C34.7188 18.4167 34.1771 20.4271 33.0938 22.0938C32.0104 23.7604 30.4167 24.9896 28.3125 25.7812C30.6875 26.4062 32.5104 27.5729 33.7812 29.2812C35.0521 30.9896 35.6875 33.0729 35.6875 35.5312C35.6875 39.9896 34.2708 43.3438 31.4375 45.5938C28.625 47.8229 24.4479 48.9583 18.9062 49H0.4375ZM11.4062 29.6562V40.5625H18.5938C20.5729 40.5625 22.0938 40.1146 23.1562 39.2188C24.2188 38.3021 24.75 37.0208 24.75 35.375C24.75 31.5833 22.8646 29.6771 19.0938 29.6562H11.4062ZM11.4062 22.4688H17.125C19.5208 22.4479 21.2292 22.0104 22.25 21.1562C23.2708 20.3021 23.7812 19.0417 23.7812 17.375C23.7812 15.4583 23.2292 14.0833 22.125 13.25C21.0208 12.3958 19.2396 11.9688 16.7812 11.9688H11.4062V22.4688ZM60.3125 49C59.9375 48.3125 59.6042 47.3021 59.3125 45.9688C57.375 48.4062 54.6667 49.625 51.1875 49.625C48 49.625 45.2917 48.6667 43.0625 46.75C40.8333 44.8125 39.7188 42.3854 39.7188 39.4688C39.7188 35.8021 41.0729 33.0312 43.7812 31.1562C46.4896 29.2812 50.4271 28.3438 55.5938 28.3438H58.8438V26.5625C58.8438 23.4583 57.5 21.9062 54.8125 21.9062C52.3125 21.9062 51.0625 23.1354 51.0625 25.5938H40.5312C40.5312 22.3229 41.9167 19.6667 44.6875 17.625C47.4792 15.5833 51.0312 14.5625 55.3438 14.5625C59.6562 14.5625 63.0625 15.6146 65.5625 17.7188C68.0625 19.8229 69.3438 22.7083 69.4062 26.375V41.3438C69.4479 44.4479 69.9271 46.8229 70.8438 48.4688V49H60.3125ZM53.7188 42.125C55.0312 42.125 56.1146 41.8438 56.9688 41.2812C57.8438 40.7188 58.4688 40.0833 58.8438 39.375V33.9688H55.7812C52.1146 33.9688 50.2812 35.6146 50.2812 38.9062C50.2812 39.8646 50.6042 40.6458 51.25 41.25C51.8958 41.8333 52.7188 42.125 53.7188 42.125ZM84.9375 15.1875L85.2812 19.1562C87.6146 16.0938 90.8333 14.5625 94.9375 14.5625C98.4583 14.5625 101.083 15.6146 102.812 17.7188C104.562 19.8229 105.469 22.9896 105.531 27.2188V49H94.9688V27.6562C94.9688 25.9479 94.625 24.6979 93.9375 23.9062C93.25 23.0938 92 22.6875 90.1875 22.6875C88.125 22.6875 86.5938 23.5 85.5938 25.125V49H75.0625V15.1875H84.9375ZM124.969 36.4062L122 39.375V49H111.469V0.96875H122V26.4688L123.062 25.0625L131 15.1875H143.625L131.781 29.0938L144.406 49H132.344L124.969 36.4062Z" fill="black"/>
</svg>
