<svg width="42" height="75" viewBox="0 0 42 75" fill="none" xmlns="http://www.w3.org/2000/svg">
<path d="M3.4375 59V13.5H19.7812C25.6354 13.5 30.0833 14.5729 33.125 16.7188C36.1875 18.8646 37.7188 21.9792 37.7188 26.0625C37.7188 28.4167 37.1771 30.4271 36.0938 32.0938C35.0104 33.7604 33.4167 34.9896 31.3125 35.7812C33.6875 36.4062 35.5104 37.5729 36.7812 39.2812C38.0521 40.9896 38.6875 43.0729 38.6875 45.5312C38.6875 49.9896 37.2708 53.3438 34.4375 55.5938C31.625 57.8229 27.4479 58.9583 21.9062 59H3.4375ZM14.4062 39.6562V50.5625H21.5938C23.5729 50.5625 25.0938 50.1146 26.1562 49.2188C27.2188 48.3021 27.75 47.0208 27.75 45.375C27.75 41.5833 25.8646 39.6771 22.0938 39.6562H14.4062ZM14.4062 32.4688H20.125C22.5208 32.4479 24.2292 32.0104 25.25 31.1562C26.2708 30.3021 26.7812 29.0417 26.7812 27.375C26.7812 25.4583 26.2292 24.0833 25.125 23.25C24.0208 22.3958 22.2396 21.9688 19.7812 21.9688H14.4062V32.4688Z" fill="black"/>
</svg>
