<svg height="210" viewBox="0 0 162 210" width="162" xmlns="http://www.w3.org/2000/svg"><g fill="none" fill-rule="evenodd"><circle cx="81.5" cy="128.5" fill="#f7f1ff" r="81.5"/><g transform="translate(29 16)"><path d="m89.6255811 134.819529c0 8.517229-6.9025916 15.422082-15.4170316 15.422082h-56.9624244c-8.51473851 0-15.41703161-6.904853-15.41703161-15.422082v-117.5649338c0-8.51752771 6.9022931-15.42238043 15.41703161-15.42238043h56.9624244c8.51444 0 15.4170316 6.90485272 15.4170316 15.42238043z" fill="#573b95"/><path d="m25.6806117 134.819529v-117.5649338c0-8.51752771 6.9280941-15.42238043 15.4739919-15.42238043h-23.8515182c-8.54589777 0-15.47399191 6.90485272-15.47399191 15.42238043v117.5649338c0 8.517229 6.92809414 15.422082 15.47399191 15.422082h23.8515182c-8.5458978 0-15.4739919-6.904853-15.4739919-15.422082" fill="#573b95"/><path d="m89.6255811 34.8354186c-.3162016-.0113698-.6326992-.0233381-.9506772-.0233381-6.9288999 0-13.4430074 2.7269659-18.3426512 7.6785302l-10.0701908 10.1769024-9.2163281 3.1545315c-3.0228632 1.0325608-5.2617361 3.5240513-5.9882891 6.6645202-.726553 3.1413664.1874116 6.3793765 2.4452329 8.6614226l6.8158016 6.8880273c-2.183508 4.9288246-1.2796097 10.9270124 2.7179123 14.9671945 2.5050388 2.5309857 5.8352215 3.9249877 9.3776856 3.9249877 1.9057954 0 3.7491202-.4069205 5.4367128-1.1746838l6.8131371 6.8856339c1.7314108 1.749459 4.0289052 2.713202 6.4691049 2.713202 1.6138715 0 3.150469-.430857 4.4925492-1.192038z" fill="#83e0f1"/><path d="m80.4801136 135.48699c0 3.594933-2.8854339 6.509654-6.4449071 6.509654h-56.6157384c-3.5594732 0-6.4449071-2.914721-6.4449071-6.509954v-117.9837467c0-3.5955324 2.8854339-6.5096547 6.4449071-6.5096547h3.6641985c.7930048 0 1.5029414.4965245 1.7818133 1.2465551l.8722163 2.3465801c.9615147 2.5872012 3.4105438 4.3006152 6.1467516 4.3006152h31.685779c2.7356145 0 5.1849403-1.713414 6.1470482-4.3006152l.8719197-2.3465801c.2785752-.7500306.9888085-1.2465551 1.7818133-1.2465551h3.6641985c3.5594732 0 6.4449071 2.9141223 6.4449071 6.5093551z" fill="#bab4ec"/><path d="m25.9917184 17.5032281c0-.0416516.0027201-.0821046.0030224-.1237563-.8891758-.7236595-1.5951971-1.6762532-2.0180241-2.7930562l-.8882691-2.3462751c-.284101-.7500289-1.0073497-1.2468519-1.8152242-1.2468519h-3.7329062c-3.6262173 0-6.5657562 2.9141156-6.5657562 6.5096398v117.9837766c0 3.595224 2.9395389 6.509939 6.5657562 6.509939h9.8960852c-.9269552-1.979501-1.444684-4.183741-1.444684-6.50964z" fill="#d1c8fe"/><g fill="#000"><path d="m2.22928646 31.1930947c1.23119233 0 2.22907789-1.0050488 2.22907789-2.2450791v-11.2022875c0-7.3090363 5.90388305-13.25499972 13.16082625-13.25499972h56.8621947c7.2569432 0 13.1608262 5.94596342 13.1608262 13.25499972v14.6864966c0 1.2403304.9978856 2.2450791 2.2290779 2.2450791s2.2293759-1.0047487 2.2293759-2.2450791v-14.6864966c0-9.78489552-7.9041237-17.74545801-17.61928-17.74545801h-56.8621947c-9.71515633 0-17.61898202 7.96056249-17.61898202 17.74545801v11.2022875c0 1.2400303.99788555 2.2450791 2.22907788 2.2450791"/><path d="m89.871349 69.7965239c-1.2311923 0-2.2290779 1.0018101-2.2290779 2.2378447v27.5391601c0 7.2851853-5.903883 13.2122873-13.1608262 13.2122873h-56.8621947c-7.2569432 0-13.16082626-5.927102-13.16082626-13.2122873v-97.07776801c0-1.23633365-.99788555-2.23814382-2.22907788-2.23814382-1.23119234 0-2.22937586 1.00181017-2.22937586 2.23814382v97.07776801c0 9.7533653 7.90412366 17.6882763 17.61928 17.6882763h56.8621947c9.7151563 0 17.618982-7.93521 17.618982-17.6882763v-27.5391601c0-1.2357354-.9978856-2.2378447-2.2290779-2.2378447" transform="translate(0 35.728188)"/><path d="m81.0003294 35.7442511c1.2280698 0 2.2234245-.9974686 2.2234245-2.2281464v-15.6565928c0-4.796129-3.8937421-8.69843807-8.6800043-8.69843807h-3.6705377c-1.7113325 0-3.2657383 1.07877907-3.8669932 2.68414047l-.8734988 2.3323907c-.6342452 1.6923309-2.2721669 2.8297846-4.0762287 2.8297846h-31.7434638c-1.8040619 0-3.4419836-1.1371559-4.0762287-2.8297846l-.873796-2.3323907c-.6015521-1.6053614-2.1553636-2.68414047-3.866696-2.68414047h-3.6708349c-4.7862623 0-8.68000434 3.90230907-8.68000434 8.69843807v117.2709091c0 4.796427 3.89374204 8.698438 8.68000434 8.698438h39.9904338c1.2280698 0 2.2237217-.997468 2.2237217-2.228146 0-1.230976-.9956519-2.228445-2.2237217-2.228445h-39.9904338c-2.3339865 0-4.2328581-1.902904-4.2328581-4.241847v-117.2709091c0-2.3389432 1.8988716-4.2418475 4.2328581-4.2418475h3.4514942l.7965216 2.125987c1.2818647 3.4215942 4.5927788 5.7203288 8.239837 5.7203288h31.7431666c3.6464637 0 6.9579723-2.2987346 8.2395398-5.7203288l.7962243-2.125987h3.4514943c2.3342836 0 4.2331553 1.9029043 4.2331553 4.2418475v15.6562949c0 1.2306779.9953547 2.2284443 2.2234245 2.2284443"/><path d="m74.4789227 143.828859c4.8220086 0 8.7448312-3.9203 8.7448312-8.738541v-27.499251c0-1.236651-1.003088-2.238718-2.2400302-2.238718-1.2372417 0-2.2403296 1.002067-2.2403296 2.238718v27.499251c0 2.349726-1.9130535 4.261404-4.2644714 4.261404h-7.3057741c-1.2372417 0-2.2403296 1.002067-2.2403296 2.238718 0 1.236352 1.0030879 2.238419 2.2403296 2.238419z"/><path d="m58.1057624 12.8255034c1.245136 0 2.2543228-1.0252101 2.2543228-2.2901154 0-1.2652115-1.0091868-2.29042156-2.2543228-2.29042156h-23.8420022c-1.2451359 0-2.2546241 1.02521006-2.2546241 2.29042156 0 1.2649053 1.0094882 2.2901154 2.2546241 2.2901154z"/></g><g fill-rule="nonzero" transform="translate(49.385524 30.231544)"><g transform="translate(1.6139 1.616654)"><path d="m39.6779797 6.46661558c18.1513298 0 32.8617747 14.73617922 32.8617747 32.91848352 0 18.1823042-14.7104449 32.9178518-32.8617747 32.9178518-5.5320199 0-10.9329105-1.3709983-15.783436-4.0384772l-2.2796335-1.2535383-12.25303034 3.3172982 3.34064664-11.9417678-1.3894669-2.3713029c-2.96301925-5.0583584-4.49748488-10.7659045-4.49748488-16.6300638 0-18.1823043 14.71107518-32.91848352 32.86240498-32.91848352zm-18.8895628 67.46625082c5.6057803 3.0830096 12.0430972 4.8367001 18.8895628 4.8367001 21.7145182 0 39.3173741-17.6328945 39.3173741-39.3844674 0-21.7522046-17.6028559-39.3850991-39.3173741-39.3850991-21.7151484 0-39.31800434 17.6328945-39.31800434 39.3850991 0 7.2610493 1.96378832 14.0623628 5.38576017 19.9031565l-5.66504054 20.2511161z" fill="#fff"/><path d="m72.5397544 39.3850991c0-18.1823043-14.7104449-32.91848352-32.8617747-32.91848352s-32.86240498 14.73617922-32.86240498 32.91848352c0 5.8641593 1.53446563 11.5717054 4.49811528 16.6300638l1.3888365 2.3713029-3.34064664 11.9417678 12.25303034-3.3172982 2.2802639 1.2535383c4.8498951 2.6674789 10.2507857 4.0384772 15.7828056 4.0384772 18.1513298 0 32.8617747-14.7355476 32.8617747-32.9178518zm-42.2375241-1.679173c1.4783576 2.565175 4.0593364 5.4479974 6.4448821 7.2983082 2.8816939 2.2348977 7.4018744 5.1713981 8.8714057 3.8692338.6934726-.6144548 2.6017831-3.3842376 2.8558463-3.5818988.2546935-.1982926 1.1013606-1.6147593 3.1004528-.6441355 1.998462.9712554 6.9851602 3.4492825 6.9851602 3.4492825s1.0805565.4370019 1.034535 2.1332254c-.0453909 1.6955921-.1191511 2.1300678-.1191511 2.1300678s-.7243636 5.8155335-8.6488639 6.047296c-3.5871447.10483-7.7410455-1.3602626-11.4214937-3.2408859-6.2822312-3.208679-10.2060252-6.7552135-14.4021648-12.2714134-2.8495419-3.7454588-5.6959317-8.6667805-5.1928487-13.0412187.873145-7.5900636 5.6915186-8.2897716 5.6915186-8.2897716s.4362573-.052415 2.1302218-.0176822c1.6933339.0347329 2.0772655 1.1367098 2.0772655 1.1367098s2.3395243 5.3520084 3.2126693 7.398086c.8731452 2.0460776-.0699775 2.9377634-.2792803 3.1827873-.2093025.2450243-1.4663793 1.731588-2.1125696 2.3959317-.6461905.6643437-.4923655 1.5857102-.2275852 2.0460776z" fill="#2bb140"/><path d="m32.921035 30.080498c-.8725146-2.0460776-3.2120389-7.3974545-3.2120389-7.3974545s-.3839316-1.1019769-2.0778961-1.1367098c-1.6933339-.0347328-2.1302217.0176822-2.1302217.0176822s-4.8183735.699708-5.6915185 8.2897716c-.5030829 4.3744382 2.3433069 9.2951285 5.1928488 13.0412187 4.1967699 5.5161999 8.1205639 9.0627344 14.4021647 12.2714134 3.6810786 1.8799918 7.8349794 3.3457159 11.4221241 3.2408859 7.9245003-.2317625 8.6488639-6.047296 8.6488639-6.047296s.0731298-.4344757.1191511-2.1306992c.0460215-1.6955921-1.034535-2.132594-1.034535-2.132594s-4.9866982-2.4780271-6.9857906-3.4492825c-1.9984618-.9712555-2.8457592.4458429-3.0998224.643504-.2540632.1982927-2.1630041 2.9680755-2.8564767 3.5825303-1.4689009 1.3021643-5.9897118-1.6343361-8.8714057-3.8692338-2.3849153-1.8503108-4.9658941-4.7331332-6.4442517-7.2983082-.2654108-.4603674-.4192357-1.3817339.2269547-2.0467091.6461905-.6643437 1.903267-2.1509075 2.1125697-2.3953002.2099332-.2450239 1.1524253-1.1367097.2792803-3.1834188z" fill="#fff"/></g><g fill="#000"><path d="m70.2349037 12.0087072c-7.7309585-7.74351962-18.0101135-12.0087072-28.9430242-12.0087072-8.5990601 0-16.8293187 2.64221871-23.8006096 7.64184714-.724994.51972901-.8920579 1.52950623-.3732143 2.25573739.519474.72623137 1.527531.89294877 2.2518946.37321977 6.4202953-4.60367451 14.0005811-7.03749651 21.9219293-7.03749651 20.7896779 0 37.7034743 16.94265911 37.7034743 37.76844521 0 20.8251544-16.9137964 37.7678135-37.7034743 37.7678135-6.3332959 0-12.5966143-1.6033923-18.1128734-4.6371442-.3662798-.2008188-.7956023-.2519707-1.1978163-.1433518l-17.96598356 4.8638547 4.89843828-17.5116454c.11852077-.4231087.05989069-.8758981-.16202054-1.2541699-3.37847224-5.7669075-5.16384894-12.3661392-5.16384894-19.0853569 0-7.9354973 2.4296757-15.5287186 7.02550776-21.9593384.5188434-.7255997.3517796-1.7353768-.372584-2.2551058-.72499395-.519729-1.73305096-.3530115-2.25189458.3732198-4.99111131 6.9825555-7.62882886 15.2268589-7.62882886 23.8412244 0 7.0621252 1.81752865 14.0030012 5.26282651 20.1210258l-5.48221602 19.5968765c-.15697694.5601453-.00063039 1.1613385.40725745 1.574343.30764966.3100692.72184205.4786812 1.14675153.4786812.14058585 0 .28180209-.0183137.42112699-.056204l20.08737918-5.4378933c5.8484956 3.0924821 12.4339636 4.7242921 19.0881481 4.7242921 10.9335411 0 21.2126961-4.2645561 28.9430242-12.0093387 7.7309586-7.7435195 11.9888802-18.0402156 11.9888802-28.9924141 0-10.9515672-4.2572912-21.2476317-11.9882498-28.9924143z"/><path d="m67.746598 60.5986294c.7413852.4957317 1.7437684.2955445 2.2386556-.4471058 3.7825777-5.6772339 5.7823005-12.2991998 5.7823005-19.1504021 0-9.2250313-3.5858837-17.8981269-10.0969609-24.420315-6.5110771-6.522188-15.1687671-10.11419092-24.3787137-10.11419092-9.2099463 0-17.8682667 3.59200292-24.3793439 10.11419092-6.5110772 6.5221881-10.09696088 15.1952837-10.09696088 24.4209465 0 6.1445477 1.63218226 12.1779506 4.72002648 17.4484949l1.0414699 1.7783192-3.15530039 11.2799501c-.15697693.5595137-.00126077 1.1607069.40725762 1.5737115.40851837.4130045 1.00742647.5746699 1.56787857.4231086l11.6251222-3.1474231 1.7097252.9403117c5.0421761 2.7729402 10.7683684 4.2380328 16.5594948 4.2380328 6.8401616 0 13.4508465-2.0031352 19.1177786-5.7927992.7413852-.4951003.9412314-1.499194.446344-2.2418444-.4948872-.7426504-1.4966399-.9428375-2.2380251-.4471057-5.1348493 3.433495-11.125822 5.2484415-17.3260975 5.2484415-5.2495875 0-10.4386536-1.3274243-15.0061162-3.8389214l-2.2796335-1.2541698c-.3656494-.2008187-.7949719-.2519707-1.1978165-.1433518l-9.5119222 2.5752792 2.5746748-9.2029287c.1178902-.4231085.0598907-.8758979-.1620206-1.2541697l-1.3894669-2.3713029c-2.7972162-4.7748125-4.2755736-10.2423866-4.2755736-15.8122643 0-17.2596749 14.0182332-31.30119813 31.2485051-31.30119813 17.2302722 0 31.2478749 14.04152323 31.2478749 31.30182963 0 6.2095928-1.8118546 12.2107889-5.2395006 17.3550321-.4948872.7426503-.2950411 1.7461126.4463442 2.2418443z"/><path d="m35.3935801 36.0355943.1065426-.1244067c1.4455751-1.6254949 1.0805563-3.5345359.519474-4.8493301-.829015-1.9418792-2.9976929-6.9055119-3.2032129-7.3753519-.3202584-.810853-1.3888365-2.0953349-3.5379712-2.1401719-1.6756819-.0341013-2.2266773.0132616-2.3552851.0290492-.013239.0012631-.026478.0031575-.0390865.005052-.2471285.035996-6.0596896.9782019-7.0633336 9.7049755-.4614745 4.0119541 1.3932494 8.7911872 5.5124767 14.2063461 4.5605278 5.994881 8.7528849 9.5647813 14.9525299 12.7311494 3.0872138 1.5768692 7.5966769 3.4227594 11.7947078 3.4227594.1361728 0 .2723456-.0018944.4072575-.006315 4.7149832-.1376682 7.232919-2.1003871 8.5145826-3.7227245 1.360467-1.7221153 1.6447909-3.4189705 1.6857687-3.7132519.0271086-.1869256.0926732-.7767518.1342815-2.3132044.0579997-2.152802-1.1725989-3.2831968-1.9656795-3.6425233-.4482355-.2229214-5.0692846-2.5178121-6.9637255-3.4379156-1.2791419-.6220328-3.1597135-.9769389-4.852417.8626365-.0088259.0094725-.0170216.0189451-.0252172.0271548-.228846.2001872-.4551701.4988892-1.1429689 1.4208871-.4236487.5677234-1.2690547 1.7006441-1.6283997 2.0789159-.7590373.0536779-3.2971469-1.0659812-6.8950088-3.8566037-2.2676553-1.759374-4.6891356-4.498213-6.0287985-6.8183641-.013239-.0328383-.0214346-.0928313-.0176521-.1231436.5554085-.5721438 1.4594447-1.6236003 2.0911352-2.3656192zm1.9789185 11.8634609c1.075513.8342186 3.1843001 2.3883536 5.2231096 3.4246539.9639268.4894168 3.8973158 1.9804011 5.7060184.3770087.4993002-.4426852 1.2085337-1.3754187 2.1554389-2.6447447.272976-.3656415.6083646-.8146419.7382331-.9699923.0844775-.0770436.1544553-.1528243.2181286-.2222899.2906282-.3157528.4230183-.459736 1.0704696-.1452462 1.944245.9447321 6.7947704 3.3545568 6.968769 3.4404416.0598909.0599929.1531944.2551282.1424772.643504-.0359346 1.3400545-.0882602 1.8244192-.0989774 1.915356-.0069348.0334697-.0037827.0132615-.0075654.0498889-.0189128.1098819-.2219112 1.1935452-1.1114473 2.2576318-1.254555 1.50172-3.2675168 2.3031003-5.9834076 2.3820385-3.6312746.1079875-7.7902188-1.6078128-10.6422824-3.0646958-5.8024743-2.9642864-9.5566828-6.1653875-13.8517998-11.8110461-3.5455362-4.66051-5.2306745-8.7678213-4.8732211-11.8767224.6732989-5.853424 3.8758814-6.7728959 4.3052039-6.8701476.1513031-.0094726.6632121-.0309438 1.8799412-.0056835.3877143.0082095.5774736.1111449.6348427.1736638.0800646.1831367 2.3552851 5.3892674 3.2044737 7.3797725.4242792.9946211.1639118 1.2876397.0384563 1.4284652-.0226955.0252603-.0422388.0479945-.0592605.0669397l-.092673.1092504c-.9324055 1.0943989-1.5886827 1.8389438-1.9505493 2.2109005-1.191512 1.2263836-1.0786652 2.9238702-.4684093 3.9822733 1.5521178 2.694002 4.2427915 5.7429103 6.8540309 7.7687797z"/><path d="m13.4899332 14.7683859c.3877141 0 .7766893-.1389311 1.0855997-.4205826.6594295-.6005617.7086029-1.6229688.1090643-2.2835236-.600169-.6605548-1.620204-.7091806-2.2802639-.1086189l-.0006304.0006314c-.6594294.6005617-.7073421 1.6223376-.1078035 2.2835237.3183669.3504855.7552548.52857 1.1940338.52857z"/><path d="m63.3348515 63.1903277-.0006304.0012629c-.5995386.6605548-.5503652 1.6823305.1090643 2.2828922.3089104.2816515.6972551.4205825 1.0849694.4205825.438779 0 .8762971-.1787159 1.1946641-.5298329.600169-.6605548.5509954-1.6829621-.1084339-2.2835237-.6594294-.6005617-1.6800949-.5519358-2.2796335.108619z"/></g></g></g></g></svg>